<svg xmlns="http://www.w3.org/2000/svg" viewBox="0 0 100 100" fill="none">
  <circle cx="50" cy="50" r="48" fill="#f0fdf4" stroke="#16a34a" stroke-width="2"/>
  <path
    d="M50 78c0-22 16-32 16-32s-8 12-8 28c0-10 8-18 8-18s-6 8-6 16c0-8 6-12 6-12s-4 6-4 10c0-4 4-6 4-6s-2 3-2 5c0-3 3-4 3-4s-1 2-1 3"
    stroke="#16a34a"
    stroke-width="3"
    stroke-linecap="round"
    stroke-linejoin="round"
    fill="none"
  />
  <path
    d="M50 78c-10-25-30-30-30-30s12 16 18 28c-6-6-14-8-14-8s8 8 12 14c-5-2-9-2-9-2s5 4 8 8c-4-1-6-1-6-1s3 2 5 4c-2 0-3 0-3 0s2 1 3 2"
    stroke="#22c55e"
    stroke-width="3"
    stroke-linecap="round"
    stroke-linejoin="round"
    fill="none"
  />
  <path d="M50 78V25" stroke="#15803d" stroke-width="3" stroke-linecap="round"/>
</svg>
