<svg xmlns="http://www.w3.org/2000/svg" viewBox="0 0 120 120" fill="none">
  <defs>
    <linearGradient id="leafGrad" x1="0" y1="0" x2="1" y2="1">
      <stop offset="0%" stop-color="#4ade80"/>
      <stop offset="100%" stop-color="#16a34a"/>
    </linearGradient>
    <linearGradient id="trunkGrad" x1="0" y1="0" x2="0" y2="1">
      <stop offset="0%" stop-color="#a8a29e"/>
      <stop offset="100%" stop-color="#78716c"/>
    </linearGradient>
  </defs>
  <circle cx="60" cy="60" r="56" fill="#f0fdf4" stroke="#dcfce7" stroke-width="2"/>
  <path d="M60 95V55" stroke="url(#trunkGrad)" stroke-width="6" stroke-linecap="round"/>
  <path d="M60 95c-8 0-12 6-12 12M60 95c8 0 12 6 12 12" stroke="url(#trunkGrad)" stroke-width="4" stroke-linecap="round"/>
  <path d="M60 60c-20-18-20-38-20-38s16 12 20 30c4-18 20-30 20-30s0 20-20 38z" fill="url(#leafGrad)"/>
  <path d="M60 60c-14-12-16-28-16-28s10 10 16 24c6-14 16-24 16-24s-2 16-16 28z" fill="#22c55e"/>
  <circle cx="60" cy="40" r="4" fill="#f0fdf4"/>
</svg>
